# xmcd CD database file
#
# Track frame offsets:
#	150
#	10955
#	21074
#	32682
#	43833
#	53730
#	64369
#	79488
#	88644
#	99238
#	110210
#	120128
#	137708
#	150434
#
# Disc length: 2171 seconds
#
# Revision: 0
# Processed by: cddbd v1.4PL0 Copyright (c) Steve Scherf et al.
# Submitted via: CDex 1.50beta9
#
DISCID=af08790e
DTITLE=Grant - There's That Smile Again
DYEAR=1900
DGENRE=Country
TTITLE0=He'll Have To Go
TTITLE1=Blueboy
TTITLE2=There's That Smile Again
TTITLE3=Welcome To My World
TTITLE4=Stand At Your Window
TTITLE5=There's Always Me
TTITLE6=Darlin When I' Hurtin
TTITLE7=I Wont Forget You
TTITLE8=Your The Only Good Thing
TTITLE9=Moonlight and Roses
TTITLE10=Fool Such As I
TTITLE11=Like Leaves In The Wind
TTITLE12=Blue Skies
TTITLE13=Could I Be Falling In Love
EXTD=
EXTT0=
EXTT1=
EXTT2=
EXTT3=
EXTT4=
EXTT5=
EXTT6=
EXTT7=
EXTT8=
EXTT9=
EXTT10=
EXTT11=
EXTT12=
EXTT13=
PLAYORDER=
